<svg id="Capa_1" data-name="Capa 1" xmlns="http://www.w3.org/2000/svg" xmlns:xlink="http://www.w3.org/1999/xlink" viewBox="0 0 56 56"><defs><style>.cls-1{fill:none;}.cls-2{clip-path:url(#clip-path);}.cls-3{fill:#223354;}.cls-4{fill:#fff;}</style><clipPath id="clip-path"><rect class="cls-1" width="56" height="56"/></clipPath></defs><title>Mesa de trabajo 4</title><g class="cls-2"><rect class="cls-3" x="-5" y="-5" width="66" height="66"/></g><path class="cls-4" d="M44.178,11.6H11.822a2.382,2.382,0,0,0-2.379,2.379V42.022A2.382,2.382,0,0,0,11.822,44.4H44.178a2.382,2.382,0,0,0,2.379-2.379V13.978A2.382,2.382,0,0,0,44.178,11.6ZM42.01,42.1l-10.06-11.5a.921.921,0,0,0-.743-.325.947.947,0,0,0-.724.367l-4.22,5.425-6.454-9.681a.978.978,0,0,0-1.584,0l-4.311,6.467A.952.952,0,0,0,15.5,33.917l3.519-5.28,6.394,9.591a.95.95,0,0,0,.75.423.937.937,0,0,0,.793-.367l4.322-5.557,8.549,9.77h-28a.476.476,0,0,1-.476-.476V13.978a.476.476,0,0,1,.476-.476H44.178a.476.476,0,0,1,.476.476V42.022a.476.476,0,0,1-.476.476H42.213A.94.94,0,0,0,42.01,42.1Z"/><path class="cls-4" d="M35.545,15.91a5.982,5.982,0,1,0,5.982,5.982A5.989,5.989,0,0,0,35.545,15.91Zm0,10.06a4.078,4.078,0,1,1,4.078-4.078A4.083,4.083,0,0,1,35.545,25.97Z"/></svg>