<svg id="Capa_1" data-name="Capa 1" xmlns="http://www.w3.org/2000/svg" viewBox="0 0 32 32"><defs><style>.cls-1{fill:#ee6c05;}</style></defs><title>Mesa de trabajo 11 copia 4</title><path class="cls-1" d="M27.281,8.848a.766.766,0,0,0-.765.765V28.921a1.064,1.064,0,0,1-1.076,1.048H6.561a1.064,1.064,0,0,1-1.076-1.048V3.079A1.064,1.064,0,0,1,6.561,2.031h12.25a.765.765,0,1,0,0-1.531H6.561A2.6,2.6,0,0,0,3.953,3.079V28.921A2.6,2.6,0,0,0,6.561,31.5H25.439a2.6,2.6,0,0,0,2.607-2.579V9.613A.766.766,0,0,0,27.281,8.848Z"/><path class="cls-1" d="M8.633,9.018H7.712a.765.765,0,0,0,0,1.531h.921a.765.765,0,0,0,0-1.531Z"/><path class="cls-1" d="M21.525,7.787H26.59A.765.765,0,0,0,27.154,6.5L22.089.978A.765.765,0,0,0,20.76,1.5V7.021A.766.766,0,0,0,21.525,7.787Zm.765-1.531V3.464L24.85,6.256Z"/><path class="cls-1" d="M24.288,9.018H11.4a.765.765,0,0,0,0,1.531H24.288a.765.765,0,0,0,0-1.531Z"/><path class="cls-1" d="M8.633,13.93H7.712a.765.765,0,0,0,0,1.531h.921a.765.765,0,0,0,0-1.531Z"/><path class="cls-1" d="M24.288,13.93H11.4a.765.765,0,1,0,0,1.531H24.288a.765.765,0,0,0,0-1.531Z"/><path class="cls-1" d="M8.633,18.841H7.712a.765.765,0,0,0,0,1.531h.921a.765.765,0,0,0,0-1.531Z"/><path class="cls-1" d="M24.288,18.841H11.4a.765.765,0,0,0,0,1.531H24.288a.765.765,0,0,0,0-1.531Z"/><path class="cls-1" d="M8.633,23.753H7.712a.765.765,0,0,0,0,1.531h.921a.765.765,0,0,0,0-1.531Z"/><path class="cls-1" d="M24.288,23.753H11.4a.765.765,0,1,0,0,1.531H24.288a.765.765,0,0,0,0-1.531Z"/></svg>