<svg id="Capa_1" data-name="Capa 1" xmlns="http://www.w3.org/2000/svg" viewBox="0 0 32 32"><defs><style>.cls-1{fill:#ee6c05;}</style></defs><title>Mesa de trabajo 11 copia 2</title><path class="cls-1" d="M25.987.5H4.981A2.219,2.219,0,0,0,2.764,2.717V8.923A2.219,2.219,0,0,0,4.981,11.14H9.6a.785.785,0,0,0,0-1.57H4.981a.648.648,0,0,1-.647-.647V2.717a.648.648,0,0,1,.647-.647H25.987a.648.648,0,0,1,.647.647V8.923a.648.648,0,0,1-.647.647H18.67a.785.785,0,0,0,0,1.57h7.317A2.219,2.219,0,0,0,28.2,8.923V2.717A2.219,2.219,0,0,0,25.987.5Z"/><path class="cls-1" d="M23.246,15.3a2.426,2.426,0,0,0-.763.124V15.13a2.28,2.28,0,0,0-2.333-2.217,2.4,2.4,0,0,0-1.423.464,2.353,2.353,0,0,0-2.451-.572V9.878a2.336,2.336,0,0,0-4.665,0v6.031a2.424,2.424,0,0,0-.786-.132,2.28,2.28,0,0,0-2.333,2.217v7.562a.79.79,0,0,0,.241.566L11,28.3v2.417a.786.786,0,0,0,.785.785H22.291a.786.786,0,0,0,.785-.785V28.3l2.26-2.159a.79.79,0,0,0,.243-.568V17.517A2.28,2.28,0,0,0,23.246,15.3ZM12.324,27.4l-2.262-2.177V17.994a.773.773,0,0,1,1.526,0v1.472a.779.779,0,0,0,.023.181V19.9a.785.785,0,0,0,1.57,0V9.878a.773.773,0,0,1,1.526,0v7.678a.789.789,0,0,0,1.577-.041V14.956a.765.765,0,0,1,1.526,0v3.555a.784.784,0,0,0,1.556.138.773.773,0,0,0,.022-.177V15.13a.773.773,0,0,1,1.526,0v4.3a.785.785,0,1,0,1.57,0v-1.91a.773.773,0,0,1,1.526,0v7.721L21.748,27.4a.79.79,0,0,0-.243.568V29.93H12.565V27.965A.79.79,0,0,0,12.324,27.4Z"/></svg>