<svg id="Capa_1" data-name="Capa 1" xmlns="http://www.w3.org/2000/svg" viewBox="0 0 50 50"><defs><style>.cls-1{fill:#ee6c05;}</style></defs><title>Mesa de trabajo 6 copia 2</title><path class="cls-1" d="M41.484,2.7H10.565A1.116,1.116,0,0,0,9.45,3.819V24.109a1.116,1.116,0,0,0,1.115,1.115H30.8l2.548,4.286a1.11,1.11,0,0,0,.942.545H34.3a1.11,1.11,0,0,0,.936-.509l2.8-4.322h3.443A1.116,1.116,0,0,0,42.6,24.109V3.819A1.116,1.116,0,0,0,41.484,2.7Zm-29.8,2.23h28.69V22.995H37.435a1.11,1.11,0,0,0-.936.509l-2.154,3.324L32.391,23.54a1.12,1.12,0,0,0-.958-.545H11.679Z"/><path class="cls-1" d="M29.377,29.421H8.516A1.116,1.116,0,0,0,7.4,30.535V42.456a1.116,1.116,0,0,0,1.115,1.115H11.1l1.816,3.165a1.118,1.118,0,0,0,.961.561h.005a1.12,1.12,0,0,0,.96-.547l1.881-3.178H29.377a1.116,1.116,0,0,0,1.115-1.115V30.535A1.116,1.116,0,0,0,29.377,29.421ZM9.631,31.65H28.262v9.691H16.086a1.122,1.122,0,0,0-.96.547L13.9,43.967,12.712,41.9a1.117,1.117,0,0,0-.967-.561H9.631Z"/><path class="cls-1" d="M16.339,11.534H35.71a1.115,1.115,0,0,0,0-2.23H16.339a1.115,1.115,0,0,0,0,2.23Z"/><path class="cls-1" d="M36.825,17.124A1.116,1.116,0,0,0,35.71,16.01H16.339a1.115,1.115,0,1,0,0,2.23H35.71A1.116,1.116,0,0,0,36.825,17.124Z"/><path class="cls-1" d="M12.613,37.611H25.279a1.115,1.115,0,1,0,0-2.23H12.613a1.115,1.115,0,0,0,0,2.23Z"/></svg>