<svg id="Capa_1" data-name="Capa 1" xmlns="http://www.w3.org/2000/svg" viewBox="0 0 50 50"><defs><style>.cls-1{fill:#ee6c05;}</style></defs><title>Mesa de trabajo 5</title><path class="cls-1" d="M41.1,12.489A15.88,15.88,0,1,0,18.767,31.518,15.885,15.885,0,0,0,40.134,24.6,15.777,15.777,0,0,0,41.1,12.489ZM38.041,23.535A13.529,13.529,0,1,1,26.017,3.849a13.525,13.525,0,0,1,12.85,9.364A13.438,13.438,0,0,1,38.041,23.535Z"/><path class="cls-1" d="M17.588,33.224a1.179,1.179,0,0,0-1.608.417l-7.7,13.088a1.175,1.175,0,0,0,2.026,1.192L18,34.833a1.175,1.175,0,0,0-.417-1.609Z"/><path class="cls-1" d="M25.846,9.581a13.152,13.152,0,0,0-11.888,7.611,1.178,1.178,0,0,0,0,.988,13.091,13.091,0,0,0,23.777,0,1.178,1.178,0,0,0,0-.988A13.152,13.152,0,0,0,25.846,9.581Zm9.511,8.1a10.737,10.737,0,0,1-19.021,0,10.737,10.737,0,0,1,19.021,0Z"/><path class="cls-1" d="M21.206,17.685a4.64,4.64,0,1,0,4.64-4.64A4.645,4.645,0,0,0,21.206,17.685Zm4.64,2.289a2.289,2.289,0,1,1,2.289-2.289A2.292,2.292,0,0,1,25.846,19.974Z"/></svg>