<svg id="Capa_1" data-name="Capa 1" xmlns="http://www.w3.org/2000/svg" viewBox="0 0 32 32"><defs><style>.cls-1{fill:#ee6c05;}</style></defs><title>Mesa de trabajo 11 copia</title><path class="cls-1" d="M25.312,21.554a.786.786,0,0,0-.785.785V28.9a1.042,1.042,0,0,1-1.055,1.026H4.619A1.042,1.042,0,0,1,3.564,28.9V3.1A1.042,1.042,0,0,1,4.619,2.07H23.473A1.042,1.042,0,0,1,24.527,3.1V7.4a.785.785,0,1,0,1.57,0V3.1A2.613,2.613,0,0,0,23.473.5H4.619A2.613,2.613,0,0,0,1.995,3.1V28.9a2.613,2.613,0,0,0,2.624,2.6H23.473A2.613,2.613,0,0,0,26.1,28.9V22.339A.786.786,0,0,0,25.312,21.554Z"/><path class="cls-1" d="M22.418,7.493a.786.786,0,0,0-.785-.785H6.228a.785.785,0,1,0,0,1.57h15.4A.786.786,0,0,0,22.418,7.493Z"/><path class="cls-1" d="M21.633,20.963H6.228a.785.785,0,1,0,0,1.57h15.4a.785.785,0,1,0,0-1.57Z"/><path class="cls-1" d="M21.633,26.022H6.228a.785.785,0,1,0,0,1.57h15.4a.785.785,0,1,0,0-1.57Z"/><path class="cls-1" d="M14.505,10.847H6.228a.786.786,0,0,0-.785.785v5.978a.786.786,0,0,0,.785.785h8.277a.786.786,0,0,0,.785-.785V11.631A.786.786,0,0,0,14.505,10.847Zm-.785,1.57v4.408H7.013V12.416Z"/><path class="cls-1" d="M24.392,9.007a5.613,5.613,0,1,0,5.613,5.613A5.62,5.62,0,0,0,24.392,9.007Zm0,9.657a4.044,4.044,0,1,1,4.044-4.044A4.048,4.048,0,0,1,24.392,18.664Z"/><path class="cls-1" d="M25.907,12.456l-2.2,2.2-.825-.825a.785.785,0,1,0-1.11,1.11l1.38,1.38a.785.785,0,0,0,1.11,0l2.759-2.759a.785.785,0,0,0-1.11-1.11Z"/></svg>