<svg id="Capa_1" data-name="Capa 1" xmlns="http://www.w3.org/2000/svg" xmlns:xlink="http://www.w3.org/1999/xlink" viewBox="0 0 107.938 111.646"><defs><style>.cls-1,.cls-2,.cls-3,.cls-8{fill:none;}.cls-2{clip-rule:evenodd;}.cls-3,.cls-8{stroke:#363636;stroke-miterlimit:10;stroke-width:7px;}.cls-4{clip-path:url(#clip-path);}.cls-5{clip-path:url(#clip-path-2);}.cls-6{fill:#363636;}.cls-7{clip-path:url(#clip-path-3);}.cls-8{stroke-linecap:round;}.cls-9{clip-path:url(#clip-path-5);}.cls-10{clip-path:url(#clip-path-7);}</style><clipPath id="clip-path" transform="translate(-1.5 1.527)"><circle class="cls-1" cx="36.319" cy="63.213" r="6.044"/></clipPath><clipPath id="clip-path-2" transform="translate(-1.5 1.527)"><rect class="cls-1" x="-245.549" y="-214.26" width="1318.681" height="1010.989"/></clipPath><clipPath id="clip-path-3" transform="translate(-1.5 1.527)"><circle class="cls-1" cx="75.879" cy="63.213" r="6.044"/></clipPath><clipPath id="clip-path-5" transform="translate(-1.5 1.527)"><path class="cls-2" d="M63.325,9.131s9.749,36.622,40.619,34.125c0,0-12.742-25.1-22.341-31.073C72.976,6.814,63.325,9.131,63.325,9.131Z"/></clipPath><clipPath id="clip-path-7" transform="translate(-1.5 1.527)"><path class="cls-2" d="M7.4,42.284C8.485,38.4,52.624,55.046,72.122,7.05,71.955,7.22,49.641-.671,33.4,8.16,18.181,16.432,6.319,46.168,7.4,42.284Z"/></clipPath></defs><title>icon-error</title><ellipse class="cls-3" cx="53.5" cy="57.047" rx="50" ry="51.099"/><g class="cls-4"><g class="cls-5"><rect class="cls-6" x="23.28" y="53.201" width="23.077" height="23.077"/></g></g><g class="cls-7"><g class="cls-5"><rect class="cls-6" x="62.841" y="53.201" width="23.077" height="23.077"/></g></g><path class="cls-8" d="M40.165,87.938a29.766,29.766,0,0,1,15.954-4.4q8.832,0,14.815,4.4" transform="translate(-1.5 1.527)"/><g class="cls-9"><g class="cls-5"><rect class="cls-6" x="56.33" y="4.666" width="51.608" height="45.733"/></g></g><g class="cls-10"><g class="cls-5"><rect class="cls-6" x="0.338" width="75.778" height="49.654"/></g></g></svg>