<svg id="Capa_1" data-name="Capa 1" xmlns="http://www.w3.org/2000/svg" viewBox="0 0 50 50"><defs><style>.cls-1{fill:#ee6c05;}</style></defs><title>Mesa de trabajo 6 copia</title><path class="cls-1" d="M16.681,27.7H33.75A1.055,1.055,0,0,0,34.8,26.642V22.7a1.055,1.055,0,0,0-1.054-1.054H31.273l-1.334-4.892a7.291,7.291,0,1,0-9.446,0l-1.334,4.892H16.681A1.055,1.055,0,0,0,15.627,22.7v3.939A1.055,1.055,0,0,0,16.681,27.7Zm3.283-3.939H32.7v1.832H17.734V23.756ZM25.215,18.5a7.248,7.248,0,0,0,2.856-.584l1.017,3.729H21.343l1.017-3.729A7.248,7.248,0,0,0,25.215,18.5Zm0-12.474a5.183,5.183,0,1,1-5.183,5.183A5.189,5.189,0,0,1,25.215,6.029Z"/><path class="cls-1" d="M36.377,40.031h-.916V37.146a1.055,1.055,0,0,0-1.054-1.054h-.493l-1.12-6.162a1.05,1.05,0,0,0-.439-.679,1.054,1.054,0,0,0-1.635,1.057l1.052,5.785H18.659l1.062-5.837a1.056,1.056,0,0,0-.848-1.226,1.054,1.054,0,0,0-1.226.848l-1.13,6.215h-.493a1.055,1.055,0,0,0-1.054,1.054v2.885h-.916A1.055,1.055,0,0,0,13,41.085v3.939a1.055,1.055,0,0,0,1.054,1.054H36.377a1.055,1.055,0,0,0,1.054-1.054V41.085A1.055,1.055,0,0,0,36.377,40.031Zm-1.054,2.108v1.832H15.108V42.139H35.323Zm-1.97-2.108H17.078V38.2H33.353Z"/></svg>