<svg id="Capa_1" data-name="Capa 1" xmlns="http://www.w3.org/2000/svg" viewBox="0 0 32 32"><defs><style>.cls-1{fill:#ee6c05;}</style></defs><title>Mesa de trabajo 11 copia 3</title><path class="cls-1" d="M10.948,9.654a.758.758,0,0,0-.052-.138c0-.008-.005-.017-.009-.025L7.176,2.533a.775.775,0,0,0-1.368,0L2.1,9.49c0,.008-.005.017-.01.025a.768.768,0,0,0-.052.138c0,.011-.007.021-.01.032a.773.773,0,0,0-.02.17v20.87a.776.776,0,0,0,.775.775H10.2a.776.776,0,0,0,.775-.775V9.855a.774.774,0,0,0-.02-.17C10.955,9.674,10.951,9.664,10.948,9.654ZM3.557,27.326h5.87V29.95H3.557Zm5.87-16.7V25.776H3.557V10.63Zm-4.7-2.783,3.514-.014L8.911,9.08H4.074ZM5.56,6.293l.933-1.748.928,1.741Z"/><path class="cls-1" d="M22.261,14.34a.776.776,0,0,0,.775-.775v-5.1a.776.776,0,0,0-.775-.775H12.986a.776.776,0,0,0-.775.775v5.1a.776.776,0,0,0,.775.775Zm-8.5-1.55V9.239h7.725V12.79Z"/><path class="cls-1" d="M29.993,10.9A3.092,3.092,0,0,0,28.555,8.29a3.09,3.09,0,0,0-1.6-5.7A2.257,2.257,0,0,0,24.825.5H9.507a.775.775,0,0,0,0,1.55H24.825c.321,0,.6.407.6.871V28.847c0,.464-.282.871-.6.871H13.284a.775.775,0,1,0,0,1.55H24.825a2.191,2.191,0,0,0,2.032-1.627c.014,0,.028,0,.042,0a3.091,3.091,0,0,0,1.656-5.7,3.086,3.086,0,0,0,0-5.218,3.086,3.086,0,0,0,0-5.218A3.092,3.092,0,0,0,29.993,10.9ZM26.978,4.145a1.538,1.538,0,0,1,0,3.072Zm0,20.87a1.538,1.538,0,0,1,0,3.072Zm0-5.218a1.538,1.538,0,0,1,0,3.072Zm0-5.217a1.538,1.538,0,0,1,0,3.072Zm0-5.217a1.538,1.538,0,0,1,0,3.072Z"/></svg>