<svg xmlns="http://www.w3.org/2000/svg" width="32" height="32" viewBox="0 0 32 32"><path fill="#fff" d="M12.853 10.187c.307-.667.48-1.4.48-2.187 0-2.947-2.387-5.333-5.333-5.333S2.667 5.054 2.667 8A5.332 5.332 0 0 0 8 13.333c.787 0 1.52-.173 2.187-.48L13.334 16l-3.147 3.147A5.192 5.192 0 0 0 8 18.667c-2.947 0-5.333 2.387-5.333 5.333S5.054 29.333 8 29.333A5.332 5.332 0 0 0 13.333 24c0-.787-.173-1.52-.48-2.187L16 18.666l9.333 9.333h4v-1.333l-16.48-16.48zM8 10.667a2.666 2.666 0 1 1 0-5.334 2.666 2.666 0 1 1 0 5.334zm0 16a2.666 2.666 0 1 1 0-5.334 2.666 2.666 0 1 1 0 5.334zm8-10c-.373 0-.667-.293-.667-.667s.293-.667.667-.667c.373 0 .667.293.667.667s-.293.667-.667.667zM25.333 4l-8 8L20 14.667l9.333-9.333V4.001h-4z"/></svg>