<svg xmlns="http://www.w3.org/2000/svg" width="32" height="32" viewBox="0 0 32 32"><path fill="#fff" d="M2.672 16.513c-.166-4.383 3.673-8.434 8.061-8.487 2.236-.191 4.412.678 6.105 2.094-.694.763-1.4 1.518-2.155 2.224-1.49-.905-3.283-1.595-5.025-.982-2.809.8-4.509 4.116-3.47 6.863.86 2.87 4.351 4.444 7.087 3.239 1.417-.508 2.35-1.814 2.76-3.219-1.623-.033-3.247-.012-4.87-.057-.004-.966-.008-1.928-.004-2.894 2.707-.004 5.418-.012 8.13.012.166 2.366-.183 4.899-1.721 6.798-2.107 2.711-5.999 3.507-9.165 2.443-3.361-1.104-5.804-4.489-5.731-8.036zm21.803-3.526h2.415c.004.808.012 1.62.016 2.427.808.008 1.619.012 2.427.016v2.419l-2.427.012c-.008.812-.012 1.62-.016 2.431-.808-.004-1.615 0-2.419 0-.008-.812-.008-1.62-.016-2.427-.808-.008-1.62-.012-2.427-.016V15.43a494.15 494.15 0 0 0 2.427-.016c.004-.808.012-1.62.02-2.427z"/></svg>