<svg xmlns="http://www.w3.org/2000/svg" width="32" height="32" viewBox="0 0 32 32"><path fill="#fff" d="M10.447 12.323v14.521H5.612V12.323h4.835zm.308-4.484c.01.713-.237 1.309-.74 1.788s-1.165.718-1.985.718h-.029c-.801 0-1.446-.239-1.934-.718s-.733-1.075-.733-1.788c0-.723.252-1.321.755-1.795s1.16-.711 1.971-.711c.811 0 1.46.237 1.949.711s.738 1.072.747 1.795zM27.84 18.521v8.323h-4.821v-7.766c0-1.026-.198-1.829-.593-2.41s-1.013-.872-1.854-.872c-.615 0-1.131.168-1.546.506s-.725.755-.93 1.253c-.107.293-.161.689-.161 1.187v8.103h-4.821c.02-3.898.029-7.058.029-9.48s-.005-3.868-.015-4.337l-.015-.703h4.821v2.11h-.029c.195-.313.396-.586.601-.821s.481-.488.828-.762.772-.486 1.275-.637 1.062-.227 1.678-.227c1.67 0 3.014.554 4.029 1.663s1.524 2.733 1.524 4.872z"/></svg>