<svg xmlns="http://www.w3.org/2000/svg" width="32" height="32" viewBox="0 0 32 32"><path fill="#fff" d="M19.31 20.661v2.826c0 .598-.174.897-.522.897-.205 0-.406-.098-.603-.295v-4.031c.196-.196.397-.295.603-.295.348 0 .522.299.522.897zm4.526.013v.616h-1.205v-.616c0-.607.201-.911.603-.911s.603.304.603.911zm-12.937-2.92h1.433v-1.259H8.153v1.259h1.406v7.621h1.339v-7.621zm3.857 7.621h1.192v-6.616h-1.192v5.063c-.268.375-.522.563-.763.563-.161 0-.254-.094-.281-.281-.009-.027-.013-.183-.013-.469V18.76h-1.192v5.237c0 .438.036.763.107.978.107.33.366.496.777.496.429 0 .884-.272 1.366-.817v.723zm5.746-1.982v-2.638c0-.652-.04-1.094-.121-1.326-.152-.5-.469-.75-.951-.75-.446 0-.862.241-1.246.723v-2.906h-1.192v8.879h1.192v-.643c.402.491.817.737 1.246.737.482 0 .799-.246.951-.737.08-.241.121-.688.121-1.339zm4.526-.134v-.174h-1.219c0 .455-.009.728-.027.817-.063.321-.241.482-.536.482-.411 0-.616-.308-.616-.924v-1.165h2.397v-1.379c0-.705-.121-1.223-.362-1.554-.348-.455-.821-.683-1.42-.683-.607 0-1.085.228-1.433.683-.25.33-.375.848-.375 1.554v2.317c0 .705.129 1.223.388 1.554.348.455.83.683 1.446.683.643 0 1.125-.237 1.446-.71.161-.241.254-.482.281-.723.018-.08.027-.339.027-.777zm-8.143-12.228V8.218c0-.616-.192-.924-.576-.924s-.576.308-.576.924v2.813c0 .625.192.938.576.938s.576-.313.576-.938zm9.63 10.058c0 2.089-.116 3.652-.348 4.688-.125.527-.384.969-.777 1.326s-.848.563-1.366.616c-1.643.188-4.121.281-7.433.281s-5.79-.094-7.433-.281c-.518-.054-.975-.259-1.373-.616s-.654-.799-.77-1.326c-.232-1-.348-2.563-.348-4.688 0-2.089.116-3.652.348-4.688.125-.527.384-.969.777-1.326s.853-.567 1.379-.629c1.634-.179 4.107-.268 7.42-.268s5.79.089 7.433.268c.518.063.975.272 1.373.629s.654.799.77 1.326c.232 1 .348 2.563.348 4.688zM13.149 4h1.366l-1.621 5.344v3.629h-1.339V9.344c-.125-.661-.397-1.607-.817-2.839-.33-.92-.621-1.754-.871-2.504h1.42l.951 3.522.911-3.522zm4.955 4.46v2.344c0 .723-.125 1.25-.375 1.58-.33.455-.804.683-1.42.683-.598 0-1.067-.228-1.406-.683-.25-.339-.375-.866-.375-1.58V8.46c0-.714.125-1.237.375-1.567.339-.455.808-.683 1.406-.683.616 0 1.089.228 1.42.683.25.33.375.853.375 1.567zm4.487-2.17v6.683h-1.219v-.737c-.473.554-.933.83-1.379.83-.411 0-.674-.165-.79-.496-.071-.214-.107-.549-.107-1.004V6.289h1.219v4.915c0 .295.004.451.013.469.027.196.121.295.281.295.241 0 .496-.192.763-.576V6.289h1.219z"/></svg>