<svg id="Capa_1" data-name="Capa 1" xmlns="http://www.w3.org/2000/svg" viewBox="0 0 56 56"><defs><style>.cls-1{fill:none}.cls-2{clip-path:url(#clip-path)}.cls-3{fill:#223354}.cls-4{fill:#fff}</style><clipPath id="clip-path"><path class="cls-1" d="M0 0h56v56H0z"/></clipPath></defs><title>Mesa de trabajo 4</title><path class="cls-2 cls-3" d="M-5-5h66v66H-5z"/><path class="cls-4" d="M44.178 11.6H11.822a2.382 2.382 0 0 0-2.379 2.379v28.043a2.382 2.382 0 0 0 2.379 2.378h32.356a2.382 2.382 0 0 0 2.379-2.379V13.978a2.382 2.382 0 0 0-2.379-2.378zM42.01 42.1L31.95 30.6a.921.921 0 0 0-.743-.325.947.947 0 0 0-.724.367l-4.22 5.425-6.454-9.681a.978.978 0 0 0-1.584 0l-4.311 6.467a.952.952 0 0 0 1.586 1.064l3.519-5.28 6.394 9.591a.95.95 0 0 0 .75.423.937.937 0 0 0 .793-.367l4.322-5.557 8.549 9.77h-28a.476.476 0 0 1-.476-.476V13.978a.476.476 0 0 1 .476-.476h32.351a.476.476 0 0 1 .476.476v28.044a.476.476 0 0 1-.476.476h-1.965a.94.94 0 0 0-.203-.398z"/><path class="cls-4" d="M35.545 15.91a5.982 5.982 0 1 0 5.982 5.982 5.989 5.989 0 0 0-5.982-5.982zm0 10.06a4.078 4.078 0 1 1 4.078-4.078 4.083 4.083 0 0 1-4.078 4.078z"/></svg>