<svg id="Capa_1" data-name="Capa 1" xmlns="http://www.w3.org/2000/svg" viewBox="0 0 32 32"><defs><style>.cls-1{fill:#ee6c05}</style></defs><title>Mesa de trabajo 11 copia 3</title><path class="cls-1" d="M10.948 9.654a.758.758 0 0 0-.052-.138c0-.008-.005-.017-.009-.025L7.176 2.533a.775.775 0 0 0-1.368 0L2.1 9.49c0 .008-.005.017-.01.025a.768.768 0 0 0-.052.138c0 .011-.007.021-.01.032a.773.773 0 0 0-.02.17v20.87a.776.776 0 0 0 .775.775H10.2a.776.776 0 0 0 .775-.775V9.855a.774.774 0 0 0-.02-.17c0-.011-.004-.021-.007-.031zM3.557 27.326h5.87v2.624h-5.87zm5.87-16.7v15.15h-5.87V10.63zm-4.7-2.783l3.514-.014.67 1.251H4.074zm.833-1.55l.933-1.748.928 1.741zM22.261 14.34a.776.776 0 0 0 .775-.775v-5.1a.776.776 0 0 0-.775-.775h-9.275a.776.776 0 0 0-.775.775v5.1a.776.776 0 0 0 .775.775zm-8.5-1.55V9.239h7.725v3.551z"/><path class="cls-1" d="M29.993 10.9a3.092 3.092 0 0 0-1.438-2.61 3.09 3.09 0 0 0-1.6-5.7A2.257 2.257 0 0 0 24.825.5H9.507a.775.775 0 0 0 0 1.55h15.318c.321 0 .6.407.6.871v25.926c0 .464-.282.871-.6.871H13.284a.775.775 0 1 0 0 1.55h11.541a2.191 2.191 0 0 0 2.032-1.627h.042a3.091 3.091 0 0 0 1.656-5.7 3.086 3.086 0 0 0 0-5.218 3.086 3.086 0 0 0 0-5.218 3.092 3.092 0 0 0 1.438-2.605zm-3.015-6.755a1.538 1.538 0 0 1 0 3.072zm0 20.87a1.538 1.538 0 0 1 0 3.072zm0-5.218a1.538 1.538 0 0 1 0 3.072zm0-5.217a1.538 1.538 0 0 1 0 3.072zm0-5.217a1.538 1.538 0 0 1 0 3.072z"/></svg>