<svg id="Capa_1" data-name="Capa 1" xmlns="http://www.w3.org/2000/svg" viewBox="0 0 32 32"><defs><style>.cls-1{fill:#ee6c05}</style></defs><title>Mesa de trabajo 11 copia 2</title><path class="cls-1" d="M25.987.5H4.981a2.219 2.219 0 0 0-2.217 2.217v6.206a2.219 2.219 0 0 0 2.217 2.217H9.6a.785.785 0 0 0 0-1.57H4.981a.648.648 0 0 1-.647-.647V2.717a.648.648 0 0 1 .647-.647h21.006a.648.648 0 0 1 .647.647v6.206a.648.648 0 0 1-.647.647H18.67a.785.785 0 0 0 0 1.57h7.317A2.219 2.219 0 0 0 28.2 8.923V2.717A2.219 2.219 0 0 0 25.987.5z"/><path class="cls-1" d="M23.246 15.3a2.426 2.426 0 0 0-.763.124v-.294a2.28 2.28 0 0 0-2.333-2.217 2.4 2.4 0 0 0-1.423.464 2.353 2.353 0 0 0-2.451-.572V9.878a2.336 2.336 0 0 0-4.665 0v6.031a2.424 2.424 0 0 0-.786-.132 2.28 2.28 0 0 0-2.333 2.217v7.562a.79.79 0 0 0 .241.566L11 28.3v2.417a.786.786 0 0 0 .785.785h10.506a.786.786 0 0 0 .785-.785V28.3l2.26-2.159a.79.79 0 0 0 .243-.568v-8.056a2.28 2.28 0 0 0-2.333-2.217zM12.324 27.4l-2.262-2.177v-7.229a.773.773 0 0 1 1.526 0v1.472a.779.779 0 0 0 .023.181v.253a.785.785 0 0 0 1.57 0V9.878a.773.773 0 0 1 1.526 0v7.678a.789.789 0 0 0 1.577-.041v-2.559a.765.765 0 0 1 1.526 0v3.555a.784.784 0 0 0 1.556.138.773.773 0 0 0 .022-.177V15.13a.773.773 0 0 1 1.526 0v4.3a.785.785 0 1 0 1.57 0v-1.91a.773.773 0 0 1 1.526 0v7.721L21.748 27.4a.79.79 0 0 0-.243.568v1.962h-8.94v-1.965a.79.79 0 0 0-.241-.565z"/></svg>