<svg id="Capa_1" data-name="Capa 1" xmlns="http://www.w3.org/2000/svg" viewBox="0 0 50 50"><defs><style>.cls-1{fill:#ee6c05}</style></defs><title>Mesa de trabajo 6 copia 2</title><path class="cls-1" d="M41.484 2.7H10.565A1.116 1.116 0 0 0 9.45 3.819v20.29a1.116 1.116 0 0 0 1.115 1.115H30.8l2.548 4.286a1.11 1.11 0 0 0 .942.545h.01a1.11 1.11 0 0 0 .936-.509l2.8-4.322h3.443a1.116 1.116 0 0 0 1.121-1.115V3.819A1.116 1.116 0 0 0 41.484 2.7zm-29.8 2.23h28.69v18.065h-2.939a1.11 1.11 0 0 0-.936.509l-2.154 3.324-1.954-3.288a1.12 1.12 0 0 0-.958-.545H11.679zM29.377 29.421H8.516A1.116 1.116 0 0 0 7.4 30.535v11.921a1.116 1.116 0 0 0 1.115 1.115H11.1l1.816 3.165a1.118 1.118 0 0 0 .961.561h.005a1.12 1.12 0 0 0 .96-.547l1.881-3.178h12.654a1.116 1.116 0 0 0 1.115-1.115V30.535a1.116 1.116 0 0 0-1.115-1.114zM9.631 31.65h18.631v9.691H16.086a1.122 1.122 0 0 0-.96.547L13.9 43.967 12.712 41.9a1.117 1.117 0 0 0-.967-.561H9.631z"/><path class="cls-1" d="M16.339 11.534H35.71a1.115 1.115 0 0 0 0-2.23H16.339a1.115 1.115 0 0 0 0 2.23zM36.825 17.124a1.116 1.116 0 0 0-1.115-1.114H16.339a1.115 1.115 0 1 0 0 2.23H35.71a1.116 1.116 0 0 0 1.115-1.116zM12.613 37.611h12.666a1.115 1.115 0 1 0 0-2.23H12.613a1.115 1.115 0 0 0 0 2.23z"/></svg>