<svg id="Capa_1" data-name="Capa 1" xmlns="http://www.w3.org/2000/svg" viewBox="0 0 32 32"><defs><style>.cls-1{fill:#ee6c05}</style></defs><title>Mesa de trabajo 11</title><path class="cls-1" d="M26 3.629h-9.609a.795.795 0 0 0 0 1.59H26c.21 0 .444.293.444.686v23.32c0 .392-.235.686-.444.686h-6.629a.795.795 0 1 0 0 1.59H26a2.167 2.167 0 0 0 2.034-2.276V5.9A2.167 2.167 0 0 0 26 3.629z"/><path class="cls-1" d="M24.734 11.972h-8.343a.795.795 0 0 0 0 1.59h8.343a.795.795 0 0 0 0-1.59zM24.734 16.978h-4.8a.795.795 0 1 0 0 1.59h4.8a.795.795 0 0 0 0-1.59zM24.734 21.984h-4.8a.795.795 0 1 0 0 1.59h4.8a.795.795 0 0 0 0-1.59z"/><path class="cls-1" d="M17.225 17.9H14.81v-7.553a.794.794 0 0 0-.6-.77 1.461 1.461 0 0 1-1.005-1.447 1.461 1.461 0 0 1 1.007-1.447.794.794 0 0 0 .6-.77V4.195A3.577 3.577 0 0 0 11.372.5h-.755a3.577 3.577 0 0 0-3.439 3.695V17.9H4.763a.8.8 0 0 0-.795.795v12.01a.8.8 0 0 0 .795.795h12.462a.8.8 0 0 0 .795-.795V18.692a.8.8 0 0 0-.795-.792zm-5.61-9.77a3.093 3.093 0 0 0 1.6 2.758v7.8a.8.8 0 0 0 .795.795h2.42V29.91H5.558V19.487h2.415a.8.8 0 0 0 .795-.795V4.195a1.992 1.992 0 0 1 1.849-2.1h.755a1.992 1.992 0 0 1 1.849 2.1v1.177a3.093 3.093 0 0 0-1.606 2.758z"/><path class="cls-1" d="M7.178 24.239v3.337a.8.8 0 0 0 .795.795h6.042a.8.8 0 0 0 .795-.795v-3.337a.8.8 0 0 0-.795-.795H7.973a.8.8 0 0 0-.795.795zm6.042.795v1.748H8.768v-1.748z"/></svg>