<svg id="Capa_1" data-name="Capa 1" xmlns="http://www.w3.org/2000/svg" viewBox="0 0 107.938 111.646"><defs><style>.cls-1,.cls-2,.cls-3,.cls-8{fill:none}.cls-2{clip-rule:evenodd}.cls-3,.cls-8{stroke:#363636;stroke-miterlimit:10;stroke-width:7px}.cls-4{clip-path:url(#clip-path)}.cls-5{clip-path:url(#clip-path-2)}.cls-6{fill:#363636}.cls-7{clip-path:url(#clip-path-3)}.cls-8{stroke-linecap:round}.cls-9{clip-path:url(#clip-path-5)}.cls-10{clip-path:url(#clip-path-7)}</style><clipPath id="clip-path" transform="translate(-1.5 1.527)"><circle class="cls-1" cx="36.319" cy="63.213" r="6.044"/></clipPath><clipPath id="clip-path-2" transform="translate(-1.5 1.527)"><path class="cls-1" d="M-245.549-214.26h1318.681V796.729H-245.549z"/></clipPath><clipPath id="clip-path-3" transform="translate(-1.5 1.527)"><circle class="cls-1" cx="75.879" cy="63.213" r="6.044"/></clipPath><clipPath id="clip-path-5" transform="translate(-1.5 1.527)"><path class="cls-2" d="M63.325 9.131s9.749 36.622 40.619 34.125c0 0-12.742-25.1-22.341-31.073-8.627-5.369-18.278-3.052-18.278-3.052z"/></clipPath><clipPath id="clip-path-7" transform="translate(-1.5 1.527)"><path class="cls-2" d="M7.4 42.284C8.485 38.4 52.624 55.046 72.122 7.05c-.167.17-22.481-7.721-38.722 1.11-15.219 8.272-27.081 38.008-26 34.124z"/></clipPath></defs><title>icon-error</title><ellipse class="cls-3" cx="53.5" cy="57.047" rx="50" ry="51.099"/><path class="cls-4 cls-5 cls-6" d="M23.28 53.201h23.077v23.077H23.28z"/><path class="cls-7 cls-5 cls-6" d="M62.841 53.201h23.077v23.077H62.841z"/><path class="cls-8" d="M40.165 87.938a29.766 29.766 0 0 1 15.954-4.4q8.832 0 14.815 4.4" transform="translate(-1.5 1.527)"/><path class="cls-9 cls-5 cls-6" d="M56.33 4.666h51.608v45.733H56.33z"/><path class="cls-10 cls-5 cls-6" d="M.338 0h75.778v49.654H.338z"/></svg>