<svg id="Capa_1" data-name="Capa 1" xmlns="http://www.w3.org/2000/svg" viewBox="0 0 50 50"><defs><style>.cls-1{fill:#ee6c05}</style></defs><title>Mesa de trabajo 6</title><path class="cls-1" d="M41.152 40.375a1.035 1.035 0 0 0-.893 1.155c.065.5.11 1.018.137 1.532H6.59a18.346 18.346 0 0 1 10.487-15.977 11.995 11.995 0 0 0 12.836 0 16.593 16.593 0 0 1 3.259 1.926 1.032 1.032 0 0 0 1.247-1.645 18.714 18.714 0 0 0-2.686-1.694 11.933 11.933 0 0 0 3.4-11.774v-.005A11.976 11.976 0 0 0 26.2 5.19a12.077 12.077 0 0 0-.509-.107h-.01a12.024 12.024 0 0 0-10.433 20.582A20.508 20.508 0 0 0 4.5 44.094a1.033 1.033 0 0 0 1.032 1.032h35.923a1.033 1.033 0 0 0 1.032-1.032 22.422 22.422 0 0 0-.179-2.826 1.037 1.037 0 0 0-1.156-.893zm-8.466-27.09h-.183c-.14 0-.279-.008-.417-.021l-.107-.012a5.906 5.906 0 0 1-.5-.076h-.011a5.746 5.746 0 0 1-2.483-1.188l-.032-.027c-.12-.1-.235-.206-.347-.315l-.106-.108a5.244 5.244 0 0 1-.4-.461c-.068-.087-.136-.175-.2-.266s-.112-.171-.165-.257c-.044-.071-.089-.14-.129-.213a5.725 5.725 0 0 1-.185-.367c-.022-.046-.046-.091-.067-.138a5.712 5.712 0 0 1-.182-.477l-.023-.062q-.086-.268-.146-.544L27 8.722a5.622 5.622 0 0 1-.086-.535c0-.019-.007-.037-.009-.056a5.669 5.669 0 0 1-.026-.471c0-.042-.006-.083-.006-.126a9.834 9.834 0 0 1 5.9 5.746c-.03.001-.059.005-.087.005zm-8.338-6.168l-.045.2a6.264 6.264 0 0 1-.143.495 5.916 5.916 0 0 1-.169.438l-.015.037a5.717 5.717 0 0 1-3.024 2.947l-.037.015c-.146.06-.3.112-.449.16l-.089.028c-.137.04-.277.074-.418.1-.042.009-.084.02-.127.028a5.652 5.652 0 0 1-.414.061c-.046.005-.091.014-.137.018a6.027 6.027 0 0 1-.558.027 5.742 5.742 0 0 1-.723-.052c-.06-.008-.12-.015-.18-.025a5.678 5.678 0 0 1-.673-.145c-.042-.012-.083-.028-.125-.041a5.7 5.7 0 0 1-.564-.209c-.053-.023-.107-.044-.159-.069a5.8 5.8 0 0 1-.618-.335l-.038-.025a9.862 9.862 0 0 1 7.847-3.832c.292 0 .581.014.878.042a1.615 1.615 0 0 1-.02.137zm-9.8 5.4c.025.016.052.029.077.045.062.039.126.074.189.111q.195.113.395.215l.179.089q.247.117.5.216l.086.035q.312.118.633.208l.078.02q.272.074.55.127l.173.031q.242.041.486.067c.059.006.118.014.177.019.216.018.432.03.65.03s.461-.014.689-.034l.185-.017c.208-.023.415-.052.619-.092.078-.015.154-.034.231-.051q.194-.044.386-.1c.1-.027.194-.053.289-.083q.245-.078.483-.172a8.73 8.73 0 0 0 .559-.248q.257-.125.5-.268c.082-.047.164-.094.244-.144.1-.061.191-.125.285-.19s.169-.121.251-.183a7.976 7.976 0 0 0 .833-.725q.167-.168.325-.347l.129-.148a7.41 7.41 0 0 0 .343-.445q.06-.084.118-.169c.028-.041.058-.081.086-.123.031.084.068.164.1.246.027.066.052.132.081.2q.118.27.255.528c.018.033.033.068.051.1q.166.3.357.587c.039.059.082.115.123.172a7.742 7.742 0 0 0 .463.593c.082.1.167.188.253.279s.149.158.227.234.158.145.239.217q.278.249.578.47c.051.037.1.077.151.113a8.193 8.193 0 0 0 .554.352q.188.11.383.209c.065.033.13.063.2.094a7.754 7.754 0 0 0 1.289.479 5.234 5.234 0 0 0 .656.151c.143.026.288.048.433.066.085.011.169.022.255.03a7.535 7.535 0 0 0 1.407.004 9.659 9.659 0 0 1 .136 1.59 9.971 9.971 0 1 1-18.918-4.388z"/><path class="cls-1" d="M45.45 31.572a1.027 1.027 0 0 0-.833-.7l-3.391-.492-1.516-3.074a1.032 1.032 0 0 0-1.851 0l-1.516 3.072-3.391.492a1.032 1.032 0 0 0-.571 1.761l2.453 2.391-.58 3.376a1.031 1.031 0 0 0 1.5 1.088l3.032-1.595 3.032 1.6a1.045 1.045 0 0 0 1.087-.079 1.028 1.028 0 0 0 .411-1.01l-.58-3.376 2.453-2.391a1.039 1.039 0 0 0 .261-1.063zm-4.841 3.264l.317 1.85-1.662-.874a1.051 1.051 0 0 0-.96 0l-1.661.873.317-1.85a1.033 1.033 0 0 0-.3-.914l-1.344-1.31 1.858-.27a1.032 1.032 0 0 0 .777-.564l.831-1.683.831 1.683a1.032 1.032 0 0 0 .777.565l1.858.27-1.344 1.31a1.034 1.034 0 0 0-.295.914zM19.344 20.793a4.321 4.321 0 0 0 4.15 4.465 4.321 4.321 0 0 0 4.15-4.465v-.258h-8.3z"/><circle class="cls-1" cx="19.367" cy="16.909" r="1.229"/><circle class="cls-1" cx="27.782" cy="16.909" r="1.229"/></svg>