<svg id="Capa_1" data-name="Capa 1" xmlns="http://www.w3.org/2000/svg" viewBox="0 0 32 32"><defs><style>.cls-1{fill:#ee6c05}</style></defs><title>Mesa de trabajo 11 copia 4</title><path class="cls-1" d="M27.281 8.848a.766.766 0 0 0-.765.765v19.308a1.064 1.064 0 0 1-1.076 1.048H6.561a1.064 1.064 0 0 1-1.076-1.048V3.079a1.064 1.064 0 0 1 1.076-1.048h12.25a.765.765 0 1 0 0-1.531H6.561a2.6 2.6 0 0 0-2.608 2.579v25.842A2.6 2.6 0 0 0 6.561 31.5h18.878a2.6 2.6 0 0 0 2.607-2.579V9.613a.766.766 0 0 0-.765-.765z"/><path class="cls-1" d="M8.633 9.018h-.921a.765.765 0 0 0 0 1.531h.921a.765.765 0 0 0 0-1.531zM21.525 7.787h5.065a.765.765 0 0 0 .564-1.287L22.089.978a.765.765 0 0 0-1.329.522v5.521a.766.766 0 0 0 .765.766zm.765-1.531V3.464l2.56 2.792zM24.288 9.018H11.4a.765.765 0 0 0 0 1.531h12.888a.765.765 0 0 0 0-1.531zM8.633 13.93h-.921a.765.765 0 0 0 0 1.531h.921a.765.765 0 0 0 0-1.531zM24.288 13.93H11.4a.765.765 0 1 0 0 1.531h12.888a.765.765 0 0 0 0-1.531zM8.633 18.841h-.921a.765.765 0 0 0 0 1.531h.921a.765.765 0 0 0 0-1.531zM24.288 18.841H11.4a.765.765 0 0 0 0 1.531h12.888a.765.765 0 0 0 0-1.531zM8.633 23.753h-.921a.765.765 0 0 0 0 1.531h.921a.765.765 0 0 0 0-1.531zM24.288 23.753H11.4a.765.765 0 1 0 0 1.531h12.888a.765.765 0 0 0 0-1.531z"/></svg>