<svg id="Capa_1" data-name="Capa 1" xmlns="http://www.w3.org/2000/svg" viewBox="0 0 32 32"><defs><style>.cls-1{fill:#ee6c05}</style></defs><title>Mesa de trabajo 11 copia 5</title><path class="cls-1" d="M22.361 24.274a.809.809 0 0 0-1.125.19c-1.962 2.758-4.118 4.544-6.273 5.213V2.827a13.414 13.414 0 0 0 7.813 2.521 13.329 13.329 0 0 0 3.991-.609A15.888 15.888 0 0 1 27 7.436a21.176 21.176 0 0 1-.235 3.01.807.807 0 0 0 1.6.232 22.747 22.747 0 0 0 .252-3.241 17.468 17.468 0 0 0-.452-3.949.807.807 0 0 0-1.081-.568 11.716 11.716 0 0 1-4.3.815A11.753 11.753 0 0 1 14.942.746a.807.807 0 0 0-1.074 0 11.752 11.752 0 0 1-7.835 2.988 11.713 11.713 0 0 1-4.3-.815.807.807 0 0 0-1.083.569A17.468 17.468 0 0 0 .2 7.436c0 8.364 6.032 22.445 14.05 24.007a.783.783 0 0 0 .154.015.814.814 0 0 0 .154-.015c2.8-.547 5.567-2.637 7.992-6.045a.808.808 0 0 0-.189-1.124zM13.35 29.5C6.889 26.964 1.811 14.805 1.811 7.436a15.888 15.888 0 0 1 .231-2.7 13.329 13.329 0 0 0 3.991.609 13.414 13.414 0 0 0 7.317-2.179z"/><path class="cls-1" d="M25.8 12.078a6.007 6.007 0 1 0 6 6.006 6.014 6.014 0 0 0-6-6.006zm0 10.4a4.394 4.394 0 1 1 4.393-4.394 4.4 4.4 0 0 1-4.393 4.394z"/><path class="cls-1" d="M27.454 15.781l-2.4 2.4-.915-.915A.807.807 0 1 0 23 18.407l1.486 1.486a.806.806 0 0 0 1.141 0l2.971-2.972a.807.807 0 0 0-1.141-1.141z"/></svg>