<svg xmlns="http://www.w3.org/2000/svg" width="32" height="32" viewBox="0 0 32 32"><path fill="#333" d="M15.744 13.952c-2.906-.755-3.84-1.536-3.84-2.752 0-1.395 1.293-2.368 3.456-2.368 2.278 0 3.123 1.088 3.2 2.688h2.829c-.09-2.202-1.434-4.224-4.109-4.877V3.84h-3.84v2.765c-2.483.538-4.48 2.15-4.48 4.621 0 2.957 2.445 4.429 6.016 5.286 3.2.768 3.84 1.894 3.84 3.085 0 .883-.627 2.291-3.456 2.291-2.637 0-3.674-1.178-3.814-2.688H8.73c.154 2.803 2.253 4.378 4.71 4.902v2.778h3.84v-2.752c2.496-.474 4.48-1.92 4.48-4.544 0-3.635-3.11-4.877-6.016-5.632z"/></svg>