<svg xmlns="http://www.w3.org/2000/svg" width="32" height="32" viewBox="0 0 32 32"><path fill="#333" d="M12 20H9.333v2.667H12V20zm5.333 0h-2.667v2.667h2.667V20zm5.334 0H20v2.667h2.667V20zm0-5.333H20v2.667h2.667v-2.667zm-5.334 0h-2.667v2.667h2.667v-2.667zm-5.333 0H9.333v2.667H12v-2.667zm9.333-13.334V4H10.666V1.333H7.999V4H6.666c-1.48 0-2.653 1.2-2.653 2.667L4 25.334a2.666 2.666 0 0 0 2.667 2.667h18.667c1.467 0 2.667-1.2 2.667-2.667V6.667C28.001 5.2 26.801 4 25.334 4h-1.333V1.333h-2.667zm-14.666 24V10.666h18.667v14.667H6.667z"/></svg>