<svg xmlns="http://www.w3.org/2000/svg" width="32" height="32" viewBox="0 0 32 32"><path fill="#333" d="M15.996 5.068c3.559 0 3.981.014 5.386.078 1.3.059 2.005.276 2.475.459.622.242 1.066.531 1.533.997s.755.91.997 1.533c.183.47.4 1.175.459 2.475.064 1.406.078 1.827.078 5.386s-.014 3.981-.078 5.386c-.059 1.3-.276 2.005-.459 2.475-.242.622-.531 1.066-.997 1.533s-.91.755-1.533.997c-.47.183-1.175.4-2.475.459-1.405.064-1.827.078-5.386.078s-3.981-.014-5.386-.078c-1.3-.059-2.005-.276-2.475-.459-.622-.242-1.066-.531-1.533-.997s-.755-.91-.997-1.533c-.183-.47-.4-1.175-.459-2.475-.064-1.406-.078-1.827-.078-5.386s.014-3.981.078-5.386c.059-1.3.276-2.005.459-2.475.242-.622.531-1.066.997-1.533s.91-.755 1.533-.997c.47-.183 1.175-.4 2.475-.459 1.406-.064 1.827-.078 5.386-.078zm0-2.401c-3.62 0-4.074.015-5.496.08-1.419.065-2.388.29-3.236.62-.877.341-1.62.796-2.361 1.537S3.706 6.388 3.366 7.265c-.33.848-.555 1.817-.62 3.236-.065 1.422-.08 1.876-.08 5.496s.015 4.074.08 5.496c.065 1.419.29 2.388.62 3.236.341.876.796 1.62 1.537 2.361s1.484 1.197 2.361 1.537c.848.33 1.817.555 3.236.62 1.422.065 1.876.08 5.496.08s4.074-.015 5.496-.08c1.419-.065 2.388-.29 3.236-.62.877-.341 1.62-.796 2.361-1.537s1.197-1.484 1.537-2.361c.33-.848.555-1.817.62-3.236.065-1.422.08-1.876.08-5.496s-.015-4.074-.08-5.496c-.065-1.419-.29-2.388-.62-3.236-.341-.877-.796-1.62-1.537-2.361s-1.484-1.197-2.361-1.537c-.848-.33-1.817-.555-3.236-.62-1.422-.065-1.876-.08-5.496-.08zm0 6.484a6.845 6.845 0 1 0 0 13.69 6.845 6.845 0 0 0 0-13.69zm0 11.288a4.443 4.443 0 1 1 0-8.885 4.443 4.443 0 0 1 0 8.885zM24.71 8.881a1.6 1.6 0 1 1-3.2 0 1.6 1.6 0 0 1 3.2 0z"/></svg>