<svg xmlns="http://www.w3.org/2000/svg" width="32" height="32" viewBox="0 0 32 32"><path fill="#333" d="M10.07 25.006c0 .566-.2 1.05-.601 1.45s-.884.601-1.45.601c-.556 0-1.036-.203-1.442-.609s-.609-.887-.609-1.442c0-.566.2-1.05.601-1.45s.884-.601 1.45-.601 1.05.2 1.45.601.601.884.601 1.45zm7.981 3.302c0 .566-.2 1.05-.601 1.45s-.884.601-1.45.601-1.05-.2-1.45-.601-.601-.884-.601-1.45.2-1.05.601-1.45.884-.601 1.45-.601 1.05.2 1.45.601.601.884.601 1.45zM6.769 17.026c0 .566-.2 1.05-.601 1.45s-.884.601-1.45.601-1.05-.2-1.45-.601-.601-.884-.601-1.45.2-1.05.601-1.45.884-.601 1.45-.601 1.05.2 1.45.601.601.884.601 1.45zm19.263 7.98c0 .556-.203 1.036-.609 1.442s-.887.609-1.442.609c-.566 0-1.05-.2-1.45-.601s-.601-.884-.601-1.45.2-1.05.601-1.45.884-.601 1.45-.601 1.05.2 1.45.601.601.884.601 1.45zM10.583 9.045c0 .705-.251 1.309-.753 1.811s-1.106.753-1.811.753c-.705 0-1.309-.251-1.811-.753s-.753-1.106-.753-1.811c0-.705.251-1.309.753-1.811s1.106-.753 1.811-.753c.705 0 1.309.251 1.811.753s.753 1.106.753 1.811zm18.75 7.981c0 .566-.2 1.05-.601 1.45s-.884.601-1.45.601-1.05-.2-1.45-.601-.601-.884-.601-1.45.2-1.05.601-1.45.884-.601 1.45-.601 1.05.2 1.45.601.601.884.601 1.45zM19.077 5.744c0 .855-.299 1.581-.897 2.179s-1.325.897-2.18.897c-.855 0-1.581-.299-2.18-.897s-.897-1.325-.897-2.179c0-.855.299-1.581.897-2.179s1.325-.897 2.18-.897c.855 0 1.581.299 2.18.897s.897 1.325.897 2.179zm8.493 3.301c0 .994-.353 1.84-1.058 2.54s-1.549 1.05-2.532 1.05c-.994 0-1.84-.35-2.54-1.05s-1.05-1.546-1.05-2.54c0-.983.35-1.827 1.05-2.532s1.546-1.058 2.54-1.058c.983 0 1.827.353 2.532 1.058s1.058 1.549 1.058 2.532z"/></svg>