<svg xmlns="http://www.w3.org/2000/svg" width="32" height="32" viewBox="0 0 32 32"><path fill="#333" d="M25.907 17.307C25.96 16.88 26 16.454 26 16s-.04-.88-.093-1.307l2.813-2.2c.253-.2.32-.56.16-.853l-2.667-4.613a.67.67 0 0 0-.813-.293l-3.32 1.333a9.776 9.776 0 0 0-2.253-1.307l-.507-3.533a.65.65 0 0 0-.653-.56h-5.333a.65.65 0 0 0-.653.56l-.507 3.533a10.23 10.23 0 0 0-2.253 1.307l-3.32-1.333a.65.65 0 0 0-.813.293L3.121 11.64a.658.658 0 0 0 .16.853l2.813 2.2c-.053.427-.093.867-.093 1.307s.04.88.093 1.307l-2.813 2.2c-.253.2-.32.56-.16.853l2.667 4.613c.16.293.52.4.813.293l3.32-1.333c.693.533 1.44.973 2.253 1.307l.507 3.533c.04.32.32.56.653.56h5.333a.65.65 0 0 0 .653-.56l.507-3.533a10.23 10.23 0 0 0 2.253-1.307l3.32 1.333a.65.65 0 0 0 .813-.293l2.667-4.613a.673.673 0 0 0-.16-.853l-2.813-2.2zM16 20.667c-2.573 0-4.667-2.093-4.667-4.667s2.093-4.667 4.667-4.667c2.573 0 4.667 2.093 4.667 4.667S18.574 20.667 16 20.667z"/></svg>