<svg xmlns="http://www.w3.org/2000/svg" width="32" height="32" viewBox="0 0 32 32"><path fill="#333" d="M24 21.44c-1.013 0-1.92.4-2.613 1.027l-9.507-5.533c.067-.307.12-.613.12-.933s-.053-.627-.12-.933l9.4-5.48a3.982 3.982 0 0 0 2.72 1.08c2.213 0 4-1.787 4-4s-1.787-4-4-4-4 1.787-4 4c0 .32.053.627.12.933l-9.4 5.48A3.982 3.982 0 0 0 8 12.001c-2.213 0-4 1.787-4 4s1.787 4 4 4c1.053 0 2-.413 2.72-1.08l9.493 5.547c-.067.28-.107.573-.107.867 0 2.147 1.747 3.893 3.893 3.893s3.893-1.747 3.893-3.893a3.898 3.898 0 0 0-3.893-3.893z"/></svg>