<svg xmlns="http://www.w3.org/2000/svg" width="32" height="32" viewBox="0 0 32 32"><path fill="#333" d="M24.948 11.393a13.601 13.601 0 0 1-.548 4.466 13.89 13.89 0 0 1-1.711 3.681c-.765 1.175-1.677 2.215-2.733 3.119s-2.331 1.625-3.822 2.163c-1.491.538-3.086.807-4.785.807-2.677 0-5.126-.716-7.348-2.148.346.04.731.059 1.156.059 2.222 0 4.202-.681 5.941-2.044-1.037-.02-1.965-.338-2.785-.956s-1.383-1.405-1.689-2.363c.326.049.627.074.904.074.425 0 .844-.054 1.259-.163-1.106-.227-2.022-.778-2.748-1.652S4.95 14.547 4.95 13.392v-.059a4.746 4.746 0 0 0 2.163.607c-.652-.435-1.17-1.002-1.556-1.704s-.578-1.462-.578-2.281c0-.869.217-1.674.652-2.415 1.195 1.472 2.649 2.649 4.363 3.533s3.548 1.375 5.504 1.474a5.316 5.316 0 0 1-.119-1.096c0-1.323.467-2.452 1.4-3.385s2.062-1.4 3.385-1.4c1.383 0 2.548.504 3.496 1.511a9.368 9.368 0 0 0 3.037-1.156c-.365 1.136-1.067 2.015-2.104 2.637a9.547 9.547 0 0 0 2.756-.741 10.026 10.026 0 0 1-2.4 2.474z"/></svg>