<?xml version="1.0" encoding="utf-8"?>
<!-- Generated by IcoMoon.io -->
<!DOCTYPE svg PUBLIC "-//W3C//DTD SVG 1.1//EN" "http://www.w3.org/Graphics/SVG/1.1/DTD/svg11.dtd">
<svg version="1.1" xmlns="http://www.w3.org/2000/svg" xmlns:xlink="http://www.w3.org/1999/xlink" width="32" height="32" viewBox="0 0 32 32">
<path fill="#333" d="M2.672 16.513c-0.166-4.383 3.673-8.434 8.061-8.487 2.236-0.191 4.412 0.678 6.105 2.094-0.694 0.763-1.4 1.518-2.155 2.224-1.49-0.905-3.283-1.595-5.025-0.982-2.809 0.8-4.509 4.116-3.47 6.863 0.86 2.87 4.351 4.444 7.087 3.239 1.417-0.508 2.35-1.814 2.76-3.219-1.623-0.033-3.247-0.012-4.87-0.057-0.004-0.966-0.008-1.928-0.004-2.894 2.707-0.004 5.418-0.012 8.13 0.012 0.166 2.366-0.183 4.899-1.721 6.798-2.107 2.711-5.999 3.507-9.165 2.443-3.361-1.104-5.804-4.489-5.731-8.036v0zM24.475 12.987h2.415c0.004 0.808 0.012 1.62 0.016 2.427 0.808 0.008 1.619 0.012 2.427 0.016v2.419c-0.808 0.004-1.62 0.008-2.427 0.012-0.008 0.812-0.012 1.62-0.016 2.431-0.808-0.004-1.615 0-2.419 0-0.008-0.812-0.008-1.62-0.016-2.427-0.808-0.008-1.62-0.012-2.427-0.016v-2.419c0.808-0.004 1.615-0.008 2.427-0.016 0.004-0.808 0.012-1.62 0.020-2.427v0z"></path>
</svg>
