<?xml version="1.0" encoding="utf-8"?>
<!-- Generated by IcoMoon.io -->
<!DOCTYPE svg PUBLIC "-//W3C//DTD SVG 1.1//EN" "http://www.w3.org/Graphics/SVG/1.1/DTD/svg11.dtd">
<svg version="1.1" xmlns="http://www.w3.org/2000/svg" xmlns:xlink="http://www.w3.org/1999/xlink" width="32" height="32" viewBox="0 0 32 32">
<path fill="#333" d="M15.996 5.068c3.559 0 3.981 0.014 5.386 0.078 1.3 0.059 2.005 0.276 2.475 0.459 0.622 0.242 1.066 0.531 1.533 0.997s0.755 0.91 0.997 1.533c0.183 0.47 0.4 1.175 0.459 2.475 0.064 1.406 0.078 1.827 0.078 5.386s-0.014 3.981-0.078 5.386c-0.059 1.3-0.276 2.005-0.459 2.475-0.242 0.622-0.531 1.066-0.997 1.533s-0.91 0.755-1.533 0.997c-0.47 0.183-1.175 0.4-2.475 0.459-1.405 0.064-1.827 0.078-5.386 0.078s-3.981-0.014-5.386-0.078c-1.3-0.059-2.005-0.276-2.475-0.459-0.622-0.242-1.066-0.531-1.533-0.997s-0.755-0.91-0.997-1.533c-0.183-0.47-0.4-1.175-0.459-2.475-0.064-1.406-0.078-1.827-0.078-5.386s0.014-3.981 0.078-5.386c0.059-1.3 0.276-2.005 0.459-2.475 0.242-0.622 0.531-1.066 0.997-1.533s0.91-0.755 1.533-0.997c0.47-0.183 1.175-0.4 2.475-0.459 1.406-0.064 1.827-0.078 5.386-0.078zM15.996 2.667c-3.62 0-4.074 0.015-5.496 0.080-1.419 0.065-2.388 0.29-3.236 0.62-0.877 0.341-1.62 0.796-2.361 1.537s-1.197 1.484-1.537 2.361c-0.33 0.848-0.555 1.817-0.62 3.236-0.065 1.422-0.080 1.876-0.080 5.496s0.015 4.074 0.080 5.496c0.065 1.419 0.29 2.388 0.62 3.236 0.341 0.876 0.796 1.62 1.537 2.361s1.484 1.197 2.361 1.537c0.848 0.33 1.817 0.555 3.236 0.62 1.422 0.065 1.876 0.080 5.496 0.080s4.074-0.015 5.496-0.080c1.419-0.065 2.388-0.29 3.236-0.62 0.877-0.341 1.62-0.796 2.361-1.537s1.197-1.484 1.537-2.361c0.33-0.848 0.555-1.817 0.62-3.236 0.065-1.422 0.080-1.876 0.080-5.496s-0.015-4.074-0.080-5.496c-0.065-1.419-0.29-2.388-0.62-3.236-0.341-0.877-0.796-1.62-1.537-2.361s-1.484-1.197-2.361-1.537c-0.848-0.33-1.817-0.555-3.236-0.62-1.422-0.065-1.876-0.080-5.496-0.080v0 0zM15.996 9.151c-3.78 0-6.845 3.064-6.845 6.845s3.065 6.845 6.845 6.845c3.78 0 6.845-3.064 6.845-6.845s-3.064-6.845-6.845-6.845v0 0zM15.996 20.439c-2.454 0-4.443-1.989-4.443-4.443s1.989-4.443 4.443-4.443c2.454 0 4.443 1.989 4.443 4.443s-1.989 4.443-4.443 4.443v0 0zM24.71 8.881c0 0.883-0.716 1.6-1.599 1.6s-1.6-0.716-1.6-1.6c0-0.883 0.716-1.599 1.6-1.599s1.599 0.716 1.599 1.599v0 0z"></path>
</svg>
