<?xml version="1.0" encoding="utf-8"?>
<!-- Generated by IcoMoon.io -->
<!DOCTYPE svg PUBLIC "-//W3C//DTD SVG 1.1//EN" "http://www.w3.org/Graphics/SVG/1.1/DTD/svg11.dtd">
<svg version="1.1" xmlns="http://www.w3.org/2000/svg" xmlns:xlink="http://www.w3.org/1999/xlink" width="32" height="32" viewBox="0 0 32 32">
<path fill="#333" d="M10.447 12.323v14.521h-4.835v-14.521h4.835zM10.755 7.839c0.010 0.713-0.237 1.309-0.74 1.788s-1.165 0.718-1.985 0.718h-0.029c-0.801 0-1.446-0.239-1.934-0.718s-0.733-1.075-0.733-1.788c0-0.723 0.252-1.321 0.755-1.795s1.16-0.711 1.971-0.711c0.811 0 1.46 0.237 1.949 0.711s0.738 1.072 0.747 1.795v0 0zM27.84 18.521v8.323h-4.821v-7.766c0-1.026-0.198-1.829-0.593-2.41s-1.013-0.872-1.854-0.872c-0.615 0-1.131 0.168-1.546 0.506s-0.725 0.755-0.93 1.253c-0.107 0.293-0.161 0.689-0.161 1.187v8.103h-4.821c0.020-3.898 0.029-7.058 0.029-9.48s-0.005-3.868-0.015-4.337l-0.015-0.703h4.821v2.11h-0.029c0.195-0.313 0.396-0.586 0.601-0.821s0.481-0.488 0.828-0.762c0.347-0.274 0.772-0.486 1.275-0.637s1.062-0.227 1.678-0.227c1.67 0 3.014 0.554 4.029 1.663s1.524 2.733 1.524 4.872v0 0z"></path>
</svg>
