<?xml version="1.0" encoding="utf-8"?>
<!-- Generated by IcoMoon.io -->
<!DOCTYPE svg PUBLIC "-//W3C//DTD SVG 1.1//EN" "http://www.w3.org/Graphics/SVG/1.1/DTD/svg11.dtd">
<svg version="1.1" xmlns="http://www.w3.org/2000/svg" xmlns:xlink="http://www.w3.org/1999/xlink" width="32" height="32" viewBox="0 0 32 32">
<path fill="#333" d="M24.948 11.393c0.010 0.138 0.015 0.346 0.015 0.622 0 1.284-0.188 2.565-0.563 3.844s-0.946 2.506-1.711 3.681c-0.765 1.175-1.677 2.215-2.733 3.119s-2.331 1.625-3.822 2.163c-1.491 0.538-3.086 0.807-4.785 0.807-2.677 0-5.126-0.716-7.348-2.148 0.346 0.040 0.731 0.059 1.156 0.059 2.222 0 4.202-0.681 5.941-2.044-1.037-0.020-1.965-0.338-2.785-0.956s-1.383-1.405-1.689-2.363c0.326 0.049 0.627 0.074 0.904 0.074 0.425 0 0.844-0.054 1.259-0.163-1.106-0.227-2.022-0.778-2.748-1.652s-1.089-1.889-1.089-3.044v-0.059c0.672 0.375 1.393 0.578 2.163 0.607-0.652-0.435-1.17-1.002-1.556-1.704s-0.578-1.462-0.578-2.281c0-0.869 0.217-1.674 0.652-2.415 1.195 1.472 2.649 2.649 4.363 3.533s3.548 1.375 5.504 1.474c-0.079-0.375-0.119-0.741-0.119-1.096 0-1.323 0.467-2.452 1.4-3.385s2.062-1.4 3.385-1.4c1.383 0 2.548 0.504 3.496 1.511 1.077-0.207 2.089-0.593 3.037-1.156-0.365 1.136-1.067 2.015-2.104 2.637 0.919-0.099 1.837-0.346 2.756-0.741-0.662 0.968-1.462 1.793-2.4 2.474z"></path>
</svg>
