<?xml version="1.0" encoding="utf-8"?>
<!-- Generated by IcoMoon.io -->
<!DOCTYPE svg PUBLIC "-//W3C//DTD SVG 1.1//EN" "http://www.w3.org/Graphics/SVG/1.1/DTD/svg11.dtd">
<svg version="1.1" xmlns="http://www.w3.org/2000/svg" xmlns:xlink="http://www.w3.org/1999/xlink" width="32" height="32" viewBox="0 0 32 32">
<path fill="#333" d="M19.31 20.661v2.826c0 0.598-0.174 0.897-0.522 0.897-0.205 0-0.406-0.098-0.603-0.295v-4.031c0.196-0.196 0.397-0.295 0.603-0.295 0.348 0 0.522 0.299 0.522 0.897v0 0zM23.836 20.674v0.616h-1.205v-0.616c0-0.607 0.201-0.911 0.603-0.911s0.603 0.304 0.603 0.911v0 0zM10.899 17.754h1.433v-1.259h-4.179v1.259h1.406v7.621h1.339v-7.621zM14.756 25.375h1.192v-6.616h-1.192v5.063c-0.268 0.375-0.522 0.563-0.763 0.563-0.161 0-0.254-0.094-0.281-0.281-0.009-0.027-0.013-0.183-0.013-0.469v-4.875h-1.192v5.237c0 0.438 0.036 0.763 0.107 0.978 0.107 0.33 0.366 0.496 0.777 0.496 0.429 0 0.884-0.272 1.366-0.817v0.723zM20.502 23.393v-2.638c0-0.652-0.040-1.094-0.121-1.326-0.152-0.5-0.469-0.75-0.951-0.75-0.446 0-0.862 0.241-1.246 0.723v-2.906h-1.192v8.879h1.192v-0.643c0.402 0.491 0.817 0.737 1.246 0.737 0.482 0 0.799-0.246 0.951-0.737 0.080-0.241 0.121-0.688 0.121-1.339v0 0zM25.028 23.259v-0.174h-1.219c0 0.455-0.009 0.728-0.027 0.817-0.063 0.321-0.241 0.482-0.536 0.482-0.411 0-0.616-0.308-0.616-0.924v-1.165h2.397v-1.379c0-0.705-0.121-1.223-0.362-1.554-0.348-0.455-0.821-0.683-1.42-0.683-0.607 0-1.085 0.228-1.433 0.683-0.25 0.33-0.375 0.848-0.375 1.554v2.317c0 0.705 0.129 1.223 0.388 1.554 0.348 0.455 0.83 0.683 1.446 0.683 0.643 0 1.125-0.237 1.446-0.71 0.161-0.241 0.254-0.482 0.281-0.723 0.018-0.080 0.027-0.339 0.027-0.777v0 0zM16.885 11.031v-2.813c0-0.616-0.192-0.924-0.576-0.924s-0.576 0.308-0.576 0.924v2.813c0 0.625 0.192 0.938 0.576 0.938s0.576-0.313 0.576-0.938v0 0zM26.515 21.089c0 2.089-0.116 3.652-0.348 4.688-0.125 0.527-0.384 0.969-0.777 1.326s-0.848 0.563-1.366 0.616c-1.643 0.188-4.121 0.281-7.433 0.281s-5.79-0.094-7.433-0.281c-0.518-0.054-0.975-0.259-1.373-0.616s-0.654-0.799-0.77-1.326c-0.232-1-0.348-2.563-0.348-4.688 0-2.089 0.116-3.652 0.348-4.688 0.125-0.527 0.384-0.969 0.777-1.326s0.853-0.567 1.379-0.629c1.634-0.179 4.107-0.268 7.42-0.268s5.79 0.089 7.433 0.268c0.518 0.063 0.975 0.272 1.373 0.629s0.654 0.799 0.77 1.326c0.232 1 0.348 2.563 0.348 4.688v0 0zM13.149 4h1.366l-1.621 5.344v3.629h-1.339v-3.629c-0.125-0.661-0.397-1.607-0.817-2.839-0.33-0.92-0.621-1.754-0.871-2.504h1.42l0.951 3.522 0.911-3.522zM18.104 8.46v2.344c0 0.723-0.125 1.25-0.375 1.58-0.33 0.455-0.804 0.683-1.42 0.683-0.598 0-1.067-0.228-1.406-0.683-0.25-0.339-0.375-0.866-0.375-1.58v-2.344c0-0.714 0.125-1.237 0.375-1.567 0.339-0.455 0.808-0.683 1.406-0.683 0.616 0 1.089 0.228 1.42 0.683 0.25 0.33 0.375 0.853 0.375 1.567v0 0zM22.591 6.29v6.683h-1.219v-0.737c-0.473 0.554-0.933 0.83-1.379 0.83-0.411 0-0.674-0.165-0.79-0.496-0.071-0.214-0.107-0.549-0.107-1.004v-5.277h1.219v4.915c0 0.295 0.004 0.451 0.013 0.469 0.027 0.196 0.121 0.295 0.281 0.295 0.241 0 0.496-0.192 0.763-0.576v-5.103h1.219z"></path>
</svg>
