<?xml version="1.0" encoding="utf-8"?>
<!-- Generated by IcoMoon.io -->
<!DOCTYPE svg PUBLIC "-//W3C//DTD SVG 1.1//EN" "http://www.w3.org/Graphics/SVG/1.1/DTD/svg11.dtd">
<svg version="1.1" xmlns="http://www.w3.org/2000/svg" xmlns:xlink="http://www.w3.org/1999/xlink" width="32" height="32" viewBox="0 0 32 32">
<path fill="#fff" d="M10.070 25.006c0 0.566-0.2 1.050-0.601 1.45s-0.884 0.601-1.45 0.601c-0.556 0-1.036-0.203-1.442-0.609s-0.609-0.887-0.609-1.442c0-0.566 0.2-1.050 0.601-1.45s0.884-0.601 1.45-0.601c0.566 0 1.050 0.2 1.45 0.601s0.601 0.884 0.601 1.45v0zM18.051 28.308c0 0.566-0.2 1.050-0.601 1.45s-0.884 0.601-1.45 0.601c-0.566 0-1.050-0.2-1.45-0.601s-0.601-0.884-0.601-1.45c0-0.566 0.2-1.050 0.601-1.45s0.884-0.601 1.45-0.601c0.566 0 1.050 0.2 1.45 0.601s0.601 0.884 0.601 1.45v0zM6.769 17.026c0 0.566-0.2 1.050-0.601 1.45s-0.884 0.601-1.45 0.601c-0.566 0-1.050-0.2-1.45-0.601s-0.601-0.884-0.601-1.45c0-0.566 0.2-1.050 0.601-1.45s0.884-0.601 1.45-0.601c0.566 0 1.050 0.2 1.45 0.601s0.601 0.884 0.601 1.45v0zM26.032 25.006c0 0.556-0.203 1.036-0.609 1.442s-0.887 0.609-1.442 0.609c-0.566 0-1.050-0.2-1.45-0.601s-0.601-0.884-0.601-1.45c0-0.566 0.2-1.050 0.601-1.45s0.884-0.601 1.45-0.601c0.566 0 1.050 0.2 1.45 0.601s0.601 0.884 0.601 1.45v0zM10.583 9.045c0 0.705-0.251 1.309-0.753 1.811s-1.106 0.753-1.811 0.753c-0.705 0-1.309-0.251-1.811-0.753s-0.753-1.106-0.753-1.811c0-0.705 0.251-1.309 0.753-1.811s1.106-0.753 1.811-0.753c0.705 0 1.309 0.251 1.811 0.753s0.753 1.106 0.753 1.811v0zM29.333 17.026c0 0.566-0.2 1.050-0.601 1.45s-0.884 0.601-1.45 0.601c-0.566 0-1.050-0.2-1.45-0.601s-0.601-0.884-0.601-1.45c0-0.566 0.2-1.050 0.601-1.45s0.884-0.601 1.45-0.601c0.566 0 1.050 0.2 1.45 0.601s0.601 0.884 0.601 1.45v0zM19.077 5.744c0 0.855-0.299 1.581-0.897 2.179s-1.325 0.897-2.18 0.897c-0.855 0-1.581-0.299-2.18-0.897s-0.897-1.325-0.897-2.179c0-0.855 0.299-1.581 0.897-2.179s1.325-0.897 2.18-0.897c0.855 0 1.581 0.299 2.18 0.897s0.897 1.325 0.897 2.179v0zM27.57 9.045c0 0.994-0.353 1.84-1.058 2.54s-1.549 1.050-2.532 1.050c-0.994 0-1.84-0.35-2.54-1.050s-1.050-1.546-1.050-2.54c0-0.983 0.35-1.827 1.050-2.532s1.546-1.058 2.54-1.058c0.983 0 1.827 0.353 2.532 1.058s1.058 1.549 1.058 2.532v0z"></path>
</svg>
